<svg viewBox="0 0 50 64" fill="none" xmlns="http://www.w3.org/2000/svg">
  <path fill="#1B3280" d="M0 1.5534C0 0.695479 0.69548 0 1.5534 0H47.8447C48.7026 0 49.3981 0.69548 49.3981 1.5534V47.8447C49.3981 48.7026 48.7026 49.3981 47.8447 49.3981H1.5534C0.695479 49.3981 0 48.7026 0 47.8447V1.5534Z"/>
  <path fill="#FFFFFF" d="M6.21359 0V21.1262H0V30.1359H6.21359V49.3981H35.1068C42.9996 49.3981 49.3981 44.7379 49.3981 35.1068C49.3981 25.4757 42.9996 20.8155 35.1068 20.8155H16.7767V0H6.21359Z"/>
  <path fill="#E49F24" d="M0 25.4757V30.1359H11.4951V45.0485H35.7282C40.8757 45.0485 45.0485 40.8757 45.0485 35.7282V34.7961C45.0485 29.6486 40.8757 25.4757 35.7282 25.4757H16.7767V0H11.4951V25.4757H0Z"/>
  <path fill="#1B3280" d="M16.7812 40.3883V29.8252H35.1113C38.0283 29.8252 40.3929 32.1898 40.3929 35.1067C40.3929 38.0237 38.0283 40.3883 35.1113 40.3883H16.7812Z"/>
  <path fill="#FFFFFF" d="M0.625 63.8511V52.9643H1.6075V62.958H6.73539V63.8511H0.625Z"/>
  <path fill="#FFFFFF" d="M17.3498 58.4077C17.3498 59.5417 17.1501 60.5287 16.7508 61.3686C16.3515 62.2049 15.8016 62.8535 15.101 63.3142C14.404 63.7713 13.6019 63.9999 12.6947 63.9999C11.7875 63.9999 10.9837 63.7713 10.2831 63.3142C9.58611 62.8535 9.03795 62.2049 8.63864 61.3686C8.24284 60.5287 8.04494 59.5417 8.04494 58.4077C8.04494 57.2736 8.24284 56.2884 8.63864 55.4521C9.03795 54.6122 9.58786 53.9636 10.2884 53.5065C10.9889 53.0458 11.791 52.8154 12.6947 52.8154C13.6019 52.8154 14.404 53.0458 15.101 53.5065C15.8016 53.9636 16.3515 54.6122 16.7508 55.4521C17.1501 56.2884 17.3498 57.2736 17.3498 58.4077ZM16.3935 58.4077C16.3935 57.4331 16.2324 56.5985 15.9102 55.9039C15.5879 55.2058 15.1483 54.6724 14.5914 54.3039C14.0345 53.9353 13.4023 53.751 12.6947 53.751C11.9907 53.751 11.3602 53.9353 10.8033 54.3039C10.2464 54.6724 9.80503 55.204 9.47928 55.8986C9.15704 56.5932 8.99591 57.4296 8.99591 58.4077C8.99591 59.3822 9.15704 60.2168 9.47928 60.9114C9.80153 61.606 10.2411 62.1394 10.798 62.5115C11.355 62.88 11.9872 63.0643 12.6947 63.0643C13.4023 63.0643 14.0345 62.88 14.5914 62.5115C15.1518 62.1429 15.5932 61.6113 15.9154 60.9167C16.2377 60.2186 16.397 59.3822 16.3935 58.4077Z"/>
  <path fill="#FFFFFF" d="M19.7784 52.9643L22.7574 57.69H22.8257L25.8047 52.9643H26.9659L23.5035 58.4077L26.9659 63.8511H25.8047L22.8257 59.1785H22.7574L19.7784 63.8511H18.6173L22.1322 58.4077L18.6173 52.9643H19.7784Z"/>
  <path fill="#FFFFFF" d="M28.8284 63.8511V52.9643H32.4589C33.1594 52.9643 33.7426 53.0883 34.2085 53.3364C34.6778 53.5845 35.0299 53.9229 35.2645 54.3517C35.4992 54.7805 35.6166 55.2678 35.6166 55.8135C35.6166 56.2672 35.5412 56.6552 35.3906 56.9777C35.24 57.3002 35.0351 57.5607 34.7759 57.7591C34.5167 57.9576 34.2277 58.1011 33.909 58.1897V58.2748C34.2558 58.2996 34.592 58.4236 34.9178 58.6469C35.2435 58.8666 35.5115 59.1749 35.7216 59.5718C35.9318 59.9687 36.0369 60.4436 36.0369 60.9965C36.0369 61.5458 35.916 62.0366 35.6743 62.4689C35.4327 62.8978 35.0614 63.2362 34.5605 63.4843C34.0631 63.7288 33.4291 63.8511 32.6586 63.8511H28.8284ZM29.8109 62.958H32.6586C33.4887 62.958 34.1017 62.7719 34.4975 62.3998C34.8968 62.0277 35.0964 61.5599 35.0964 60.9965C35.0964 60.5818 34.9966 60.2062 34.7969 59.8695C34.6008 59.5293 34.3223 59.26 33.9615 59.0615C33.6043 58.8631 33.184 58.7638 32.7006 58.7638H29.8109V62.958ZM29.8109 57.8814H32.5482C32.972 57.8814 33.3433 57.7928 33.6621 57.6156C33.9808 57.4384 34.2295 57.1939 34.4081 56.882C34.5868 56.5702 34.6761 56.214 34.6761 55.8135C34.6761 55.2359 34.4904 54.7663 34.1192 54.4049C33.7479 54.0398 33.1945 53.8573 32.4589 53.8573H29.8109V57.8814Z"/>
  <path fill="#FFFFFF" d="M39.3902 52.9643V63.8511H38.4077V52.9643H39.3902Z"/>
  <path fill="#FFFFFF" d="M41.5995 53.8573V52.9643H49.4017V53.8573H45.9919V63.8511H45.0094V53.8573H41.5995Z"/>
</svg>