<svg viewBox="0 0 50 50" fill="none" xmlns="http://www.w3.org/2000/svg">
  <path fill="#1B3280" d="M0 1.5534C0 0.695479 0.69548 0 1.5534 0H47.8447C48.7026 0 49.3981 0.69548 49.3981 1.5534V47.8447C49.3981 48.7026 48.7026 49.3981 47.8447 49.3981H1.5534C0.695479 49.3981 0 48.7026 0 47.8447V1.5534Z"/>
  <path fill="#FFFFFF" d="M6.21359 0V21.1262H0V30.1359H6.21359V49.3981H35.1068C42.9996 49.3981 49.3981 44.7379 49.3981 35.1068C49.3981 25.4757 42.9996 20.8155 35.1068 20.8155H16.7767V0H6.21359Z"/>
  <path fill="#E49F24" d="M0 25.4757V30.1359H11.4951V45.0485H35.7282C40.8757 45.0485 45.0485 40.8757 45.0485 35.7282V34.7961C45.0485 29.6486 40.8757 25.4757 35.7282 25.4757H16.7767V0H11.4951V25.4757H0Z"/>
  <path fill="#1B3280" d="M16.7812 40.3883V29.8252H35.1113C38.0283 29.8252 40.3929 32.1898 40.3929 35.1067C40.3929 38.0237 38.0283 40.3883 35.1113 40.3883H16.7812Z"/>
</svg>